<svg xmlns="http://www.w3.org/2000/svg" width="32" height="32" viewBox="0 0 32 32" fill="none">
  <defs>
    <linearGradient id="g" x1="0" y1="0" x2="1" y2="1">
      <stop offset="0%" stop-color="#38bdf8"/>
      <stop offset="100%" stop-color="#2f6bff"/>
    </linearGradient>
  </defs>
  <rect width="32" height="32" rx="7" fill="#0a0f1a"/>
  <g fill="url(#g)">
    <rect x="5" y="9" width="3" height="3" rx="0.8"/>
    <rect x="5" y="15" width="4.5" height="4.5" rx="1"/>
    <rect x="6" y="22" width="3" height="3" rx="0.8" opacity="0.7"/>
  </g>
  <g transform="translate(9,4) scale(0.78)">
    <path fill="url(#g)" d="M19.14 12.94c.04-.3.06-.61.06-.94 0-.32-.02-.64-.07-.94l2.03-1.58c.18-.14.23-.41.12-.61l-1.92-3.32c-.12-.22-.37-.29-.59-.22l-2.39.96c-.5-.38-1.03-.7-1.62-.94l-.36-2.54c-.04-.24-.24-.41-.48-.41h-3.84c-.24 0-.43.17-.47.41l-.36 2.54c-.59.24-1.13.57-1.62.94l-2.39-.96c-.22-.08-.47 0-.59.22L2.74 8.87c-.12.21-.08.47.12.61l2.03 1.58c-.05.3-.09.63-.09.94s.02.64.07.94l-2.03 1.58c-.18.14-.23.41-.12.61l1.92 3.32c.12.22.37.29.59.22l2.39-.96c.5.38 1.03.7 1.62.94l.36 2.54c.05.24.24.41.48.41h3.84c.24 0 .44-.17.47-.41l.36-2.54c.59-.24 1.13-.56 1.62-.94l2.39.96c.22.08.47 0 .59-.22l1.92-3.32c.12-.22.07-.47-.12-.61l-2.01-1.58z"/>
  </g>
  <circle cx="20.5" cy="16" r="4.6" fill="#0a0f1a"/>
  <g fill="#7dd3fc">
    <rect x="16" y="14.6" width="2.4" height="2.4" rx="0.5"/>
    <rect x="22" y="12" width="2.4" height="2.4" rx="0.5"/>
    <rect x="22" y="17.5" width="2.4" height="2.4" rx="0.5"/>
  </g>
</svg>
